# xmcd
#
# Track frame offsets: 
#        150
#        14510
#        19750
#        35815
#        55098
#        66568
#        76325
#        86945
#        102343
#        111930
#        122773
#        136820
#        150273
#        162068
#        172768
#        182550
#        189385
#        194555
#        207060
#        221573
#
# Disc length: 3095 seconds
#
# Revision: 4
# Processed by: cddbd v1.5.2PL0 Copyright (c) Steve Scherf et al.
# Submitted via: ExactAudioCopy v1.3
#
DISCID=100c1514
DTITLE=Various Artist - Müllers Büro
DYEAR=1986
DGENRE=Soundtrack
TTITLE0=Gitti Seuberth and Nikki List - Müller's Büro
TTITLE1=Martin Brem - Guten Tag, Schöne Frau
TTITLE2=Wiener Wunder - Männer - Frauen
TTITLE3=Reinhard Thieser - Joe - noch einen
TTITLE4=Unknown Artist - Für Margaretha
TTITLE5=Sue Tauber - Männer sind wie Marzipan
TTITLE6=Martin Brem - Bettina
TTITLE7=Martin Brem - Männerfreundschaft
TTITLE8=Reinhard Thieser - Ich steig aus
TTITLE9=Brother and Sister - Männer haben Erfolg
TTITLE10=Andreas Vitasek and Maxi - Ich will mehr
TTITLE11=Wiener Wunder - Blue Box Swing
TTITLE12=Babsi Balou - Mondschein
TTITLE13=Barbara Rudnik - Er war wie Du
TTITLE14=Sue Tauber - Weil ich so sexy bin
TTITLE15=Lothar Scherpe - Big Hot Long Hip Shaker
TTITLE16=Barbara Rudnik - Das Geständnis
TTITLE17=Peter Gruber - Sieh Dich an
TTITLE18=Gitti Seuberth - Ganoventango
TTITLE19=Andreas Vitasek and Maxi - Mein Freund Max
EXTD=
EXTT0=
EXTT1=
EXTT2=
EXTT3=
EXTT4=
EXTT5=
EXTT6=
EXTT7=
EXTT8=
EXTT9=
EXTT10=
EXTT11=
EXTT12=
EXTT13=
EXTT14=
EXTT15=
EXTT16=
EXTT17=
EXTT18=
EXTT19=
PLAYORDER=
